<svg width="21" height="20" viewBox="0 0 21 20" fill="none" xmlns="http://www.w3.org/2000/svg">
<path d="M10.458 12.5C7.81631 12.5 5.46704 13.7755 3.97137 15.755C3.64947 16.181 3.48851 16.394 3.49378 16.6819C3.49785 16.9043 3.63751 17.1849 3.81252 17.3222C4.03904 17.5 4.35294 17.5 4.98074 17.5H15.9354C16.5632 17.5 16.8771 17.5 17.1036 17.3222C17.2786 17.1849 17.4182 16.9043 17.4223 16.6819C17.4276 16.394 17.2666 16.181 16.9447 15.755C15.449 13.7755 13.0998 12.5 10.458 12.5Z" stroke="#3974DB" stroke-linecap="round" stroke-linejoin="round"/>
<path d="M10.458 10C12.5291 10 14.208 8.32107 14.208 6.25C14.208 4.17893 12.5291 2.5 10.458 2.5C8.38698 2.5 6.70805 4.17893 6.70805 6.25C6.70805 8.32107 8.38698 10 10.458 10Z" stroke="#3974DB" stroke-linecap="round" stroke-linejoin="round"/>
<path fill-rule="evenodd" clip-rule="evenodd" d="M10.4578 10C12.6669 10 14.4578 8.20914 14.4578 6C14.4578 3.79086 12.6669 2 10.4578 2C8.24862 2 6.45776 3.79086 6.45776 6C6.45776 8.20914 8.24862 10 10.4578 10ZM16.925 15.0866C17.2768 15.6932 17.4579 16.3434 17.4579 17H10.4579H3.45789C3.45789 16.3434 3.63895 15.6932 3.99073 15.0866C4.34251 14.48 4.85813 13.9288 5.50814 13.4645C6.15815 13.0002 6.92982 12.6319 7.7791 12.3806C8.62838 12.1293 9.53863 12 10.4579 12C11.3771 12 12.2874 12.1293 13.1367 12.3806C13.9859 12.6319 14.7576 13.0002 15.4076 13.4645C16.0576 13.9288 16.5733 14.48 16.925 15.0866Z" fill="#3974DB"/>
</svg>
